<svg xmlns="http://www.w3.org/2000/svg" width="512" height="512" viewBox="0 0 512 512" version="1.1">
	<path d="M 222 1.630 C 106.733 17.265, 16.565 107.927, 1.537 223.301 C -0.505 238.981, -0.505 273.019, 1.537 288.699 C 16.640 404.646, 107.354 495.360, 223.301 510.463 C 238.981 512.505, 273.019 512.505, 288.699 510.463 C 376.044 499.086, 450.259 445.002, 488.307 365 C 498.679 343.193, 507.363 313.632, 510.048 291 C 510.668 285.775, 511.586 280.719, 512.087 279.764 C 513.201 277.645, 513.321 230.684, 512.211 231.370 C 511.777 231.638, 510.885 227.366, 510.229 221.878 C 506.390 189.774, 493.570 153.085, 476.030 124 C 435.350 56.545, 366.757 11.705, 288.699 1.537 C 273.674 -0.420, 236.734 -0.369, 222 1.630 M 60.750 129.080 C 58.740 130.251, 58.401 135.001, 60.200 136.800 C 60.860 137.460, 62.365 138, 63.545 138 C 64.725 138, 66.547 138.947, 67.595 140.104 C 69.437 142.139, 69.517 145.787, 70 250.354 C 70.275 309.834, 70.152 360.300, 69.726 362.500 C 68.641 368.108, 66.958 372, 65.618 372 C 64.992 372, 63.295 373.098, 61.847 374.441 C 60.399 375.783, 58.942 376.608, 58.607 376.274 C 58.273 375.940, 58 376.563, 58 377.659 C 58 378.755, 59.042 380.630, 60.314 381.826 C 62.575 383.950, 63.267 384, 90.243 384 C 114.013 384, 118.076 383.781, 119.429 382.429 C 122.627 379.230, 120.221 374, 115.551 374 C 108.914 374, 107.867 367.101, 107.279 319.484 L 106.786 279.467 121.021 261.984 C 128.850 252.368, 135.571 244.376, 135.956 244.224 C 136.802 243.891, 136.360 242.943, 151.231 277 C 169.869 319.684, 186 361.754, 186 367.677 C 186 371.187, 184.237 374, 182.037 374 C 179.677 374, 175.917 378.620, 176.674 380.592 C 176.983 381.397, 178.053 382.493, 179.052 383.028 C 181.559 384.369, 235.549 384.312, 238.066 382.965 C 241.981 380.869, 239.168 374, 234.394 374 C 230.946 374, 227.809 370.856, 224.936 364.519 C 221.240 356.368, 201.441 307.962, 179.936 254.500 C 170.423 230.850, 162.279 211.353, 161.839 211.173 C 160.678 210.699, 205.116 155.618, 212.469 148.416 C 219.755 141.281, 225.787 138.084, 233.455 137.292 C 238.967 136.724, 239.425 136.329, 239.018 132.500 C 238.545 128.061, 238.139 128, 208.949 128 C 185.004 128, 180.925 128.218, 179.571 129.571 C 176.320 132.823, 178.483 136.620, 183.697 136.813 C 197.414 137.323, 204.799 142.368, 201.181 148.758 C 200.256 150.391, 178.800 177.692, 153.500 209.426 L 107.500 267.126 107.198 213.313 C 106.831 148.009, 107.646 139.952, 114.768 138.455 C 119.103 137.544, 120.478 136.478, 120.804 133.775 C 121.477 128.195, 120.422 127.997, 90.179 128.030 C 73.246 128.049, 61.821 128.457, 60.750 129.080 M 265.571 129.571 C 264.229 130.914, 264 134.690, 264 155.500 C 264 176.310, 264.229 180.086, 265.571 181.429 C 266.436 182.293, 267.979 183, 269 183 C 272.569 183, 273.671 180.474, 274.356 170.731 C 275.347 156.645, 277.186 151.476, 283.344 145.480 C 286.668 142.243, 290.542 139.679, 294.248 138.264 C 300.550 135.858, 316.573 133.368, 330.266 132.668 L 339.032 132.219 338.766 250.404 C 338.516 361.603, 338.395 368.748, 336.727 371.294 C 335.597 373.018, 334.064 374, 332.500 374 C 330.986 374, 329.419 374.958, 328.408 376.500 C 326.891 378.816, 326.891 379.184, 328.408 381.500 L 330.046 384 358.368 384 C 385.561 384, 386.763 383.919, 388.527 381.970 C 391.297 378.909, 389.544 374.796, 385.082 373.883 C 381.594 373.170, 380.597 372.060, 378 366 C 376.701 362.970, 376.463 347.106, 376.226 247.750 L 375.951 133 380.726 133.018 C 387.333 133.044, 405.375 135.686, 411.948 137.592 C 425.077 141.398, 436.180 149.631, 440.084 158.458 C 441.143 160.851, 442.409 166.760, 442.899 171.591 C 443.807 180.548, 445.119 183.022, 448.941 182.985 C 453.365 182.941, 453.484 182.293, 453.814 156.602 C 454.117 132.992, 454.055 132.055, 452.064 130.064 C 450.009 128.009, 449.610 128, 358.571 128 C 276.788 128, 266.977 128.166, 265.571 129.571 M 0.432 256 C 0.432 269.475, 0.574 274.988, 0.747 268.250 C 0.920 261.512, 0.920 250.488, 0.747 243.750 C 0.574 237.012, 0.432 242.525, 0.432 256" stroke="none" fill="black" fill-rule="evenodd"/>
</svg>